<svg width="20px" height="20px" viewBox="0 0 20 20" xmlns="http://www.w3.org/2000/svg">
 <g id="Icons" fill="none" fill-rule="evenodd">
  <g id="Two-Tone" transform="translate(-782 -288)">
   <g id="Action" transform="translate(100 100)">
    <g id="Two-Tone-/-Action-/-help_outline" transform="translate(680 186)">
     <polygon id="Path" points="0 0 24 0 24 24 0 24"/>
     <path id="🔹-Primary-Color" d="m11 16h2v2h-2v-2zm1-14c-5.52 0-10 4.48-10 10s4.48 10 10 10 10-4.48 10-10-4.48-10-10-10zm0 18c-4.41 0-8-3.59-8-8s3.59-8 8-8 8 3.59 8 8-3.59 8-8 8zm0-14c-2.21 0-4 1.79-4 4h2c0-1.1.9-2 2-2s2 .9 2 2c0 2-3 1.75-3 5h2c0-2.25 3-2.5 3-5 0-2.21-1.79-4-4-4z" fill="#FFFFFF"/>
    </g>
   </g>
  </g>
 </g>
</svg>
