<svg xmlns="http://www.w3.org/2000/svg" width="33" height="33" viewBox="0 0 33 33" fill="none">
<path d="M27.3428 13.4122L17.3428 23.4122C17.2499 23.5051 17.1397 23.5789 17.0183 23.6292C16.8969 23.6795 16.7667 23.7054 16.6353 23.7054C16.5039 23.7054 16.3738 23.6795 16.2524 23.6292C16.131 23.5789 16.0207 23.5051 15.9278 23.4122L5.92782 13.4122C5.74018 13.2245 5.63477 12.97 5.63477 12.7047C5.63477 12.4393 5.74018 12.1848 5.92782 11.9972C6.11546 11.8095 6.36996 11.7041 6.63532 11.7041C6.90069 11.7041 7.15518 11.8095 7.34282 11.9972L16.6353 21.2909L25.9278 11.9972C26.0207 11.9042 26.131 11.8305 26.2524 11.7803C26.3738 11.73 26.5039 11.7041 26.6353 11.7041C26.7667 11.7041 26.8968 11.73 27.0182 11.7803C27.1396 11.8305 27.2499 11.9042 27.3428 11.9972C27.4357 12.0901 27.5094 12.2004 27.5597 12.3218C27.61 12.4432 27.6359 12.5733 27.6359 12.7047C27.6359 12.8361 27.61 12.9662 27.5597 13.0876C27.5094 13.2089 27.4357 13.3192 27.3428 13.4122Z"/>
</svg>