<svg xmlns="http://www.w3.org/2000/svg" width="32" height="33" viewBox="0 0 32 33" fill="none">
  <path d="M26.7076 21.2913C26.6147 21.3843 26.5044 21.458 26.383 21.5084C26.2616 21.5587 26.1315 21.5846 26.0001 21.5846C25.8687 21.5846 25.7385 21.5587 25.6171 21.5084C25.4957 21.458 25.3854 21.3843 25.2926 21.2913L16.0001 11.9975L6.70757 21.2913C6.51993 21.4789 6.26543 21.5844 6.00007 21.5844C5.7347 21.5844 5.48021 21.4789 5.29257 21.2913C5.10493 21.1037 4.99951 20.8492 4.99951 20.5838C4.99951 20.3184 5.10493 20.0639 5.29257 19.8763L15.2926 9.87629C15.3854 9.78332 15.4957 9.70956 15.6171 9.65924C15.7385 9.60891 15.8687 9.58301 16.0001 9.58301C16.1315 9.58301 16.2616 9.60891 16.383 9.65924C16.5044 9.70956 16.6147 9.78332 16.7076 9.87629L26.7076 19.8763C26.8005 19.9692 26.8743 20.0795 26.9246 20.2009C26.975 20.3223 27.0009 20.4524 27.0009 20.5838C27.0009 20.7152 26.975 20.8453 26.9246 20.9667C26.8743 21.0881 26.8005 21.1984 26.7076 21.2913Z"/>
</svg>